<?xml version="1.0" standalone="no"?>
<!DOCTYPE svg PUBLIC "-//W3C//DTD SVG 20010904//EN"
 "http://www.w3.org/TR/2001/REC-SVG-20010904/DTD/svg10.dtd">
<svg version="1.0" xmlns="http://www.w3.org/2000/svg"
 width="488.000000pt" height="488.000000pt" viewBox="0 0 488.000000 488.000000"
 preserveAspectRatio="xMidYMid meet">

<g transform="translate(0.000000,488.000000) scale(0.100000,-0.100000)"
fill="#000000" stroke="none">
<path d="M40 2480 l0 -2400 2400 0 2400 0 0 2400 0 2400 -2400 0 -2400 0 0
-2400z m4790 0 l0 -2391 -327 3 c-235 2 -327 6 -326 14 1 6 -15 25 -35 41 -32
26 -48 31 -115 36 -43 2 -81 7 -84 10 -3 4 -20 -5 -38 -19 l-33 -25 -25 43
c-20 35 -113 162 -199 272 -16 21 -15 24 27 90 24 38 49 88 55 112 11 40 10
45 -11 73 -32 40 -119 108 -264 204 -66 43 -109 76 -95 72 14 -4 72 -22 130
-40 58 -18 209 -63 335 -100 127 -37 257 -76 290 -86 33 -10 106 -32 162 -49
56 -17 105 -35 108 -40 3 -6 16 -10 28 -10 13 0 64 -13 115 -30 51 -16 97 -30
101 -30 12 0 66 48 66 59 0 5 3 13 8 17 12 12 8 24 -9 24 -8 0 -13 -4 -10 -8
3 -5 -8 -9 -24 -9 -16 0 -27 4 -24 9 3 4 1 8 -5 8 -5 0 -12 -8 -14 -18 -4 -13
-5 -11 -6 6 -1 12 -7 22 -16 22 -8 0 -15 5 -15 11 0 6 -7 8 -17 4 -15 -5 -16
-4 -5 6 6 7 12 22 12 32 0 11 7 25 16 32 15 11 15 12 0 12 -9 0 -16 -3 -16 -6
0 -4 -13 -20 -28 -37 -23 -25 -30 -28 -40 -17 -7 7 -11 17 -8 22 7 11 -22 23
-35 15 -10 -6 -7 23 6 61 6 18 4 17 -14 -4 -26 -28 -28 -8 -3 23 14 18 23 21
40 15 22 -8 30 -34 13 -41 -13 -5 -24 -48 -12 -48 6 0 11 6 11 13 0 19 37 50
49 42 6 -3 11 0 11 9 0 8 -5 16 -11 18 -18 6 -29 80 -29 208 0 69 -7 179 -15
245 -8 65 -16 155 -17 200 l-2 80 -5 -80 c-4 -59 -8 -73 -13 -54 -4 15 -14 29
-21 32 -10 4 -7 -13 10 -55 14 -33 27 -86 29 -117 l5 -56 -22 53 c-11 29 -37
69 -57 89 -36 36 -60 106 -63 183 -1 21 -3 27 -6 16 -7 -27 16 -165 34 -199 7
-15 24 -32 37 -37 30 -11 76 -147 83 -245 6 -75 -10 -202 -26 -218 -11 -11
-76 6 -446 120 -115 36 -226 69 -245 75 -19 5 -114 35 -210 65 -220 69 -685
204 -726 210 -23 4 -38 -2 -61 -21 -30 -26 -31 -29 -32 -111 l-1 -84 142 -46
c78 -26 196 -62 262 -81 67 -19 127 -37 135 -40 20 -7 -21 -30 -136 -79 -51
-22 -93 -43 -93 -49 0 -5 20 -79 44 -165 25 -86 70 -255 100 -376 30 -122 59
-232 64 -245 l9 -24 18 28 c40 60 124 74 191 30 22 -15 46 -35 52 -45 12 -18
5 -19 -237 -19 l-250 0 -3 159 c-2 88 -6 163 -10 166 -20 20 -705 -3 -763 -25
-24 -9 -25 -14 -25 -87 0 -43 -3 -108 -7 -145 l-6 -68 -98 0 c-58 0 -99 4 -99
10 0 5 13 46 30 90 50 138 226 738 218 745 -2 1 -46 24 -98 51 -52 26 -97 51
-100 54 -3 3 -29 23 -59 44 l-53 38 -30 -29 c-16 -15 -43 -49 -60 -75 -22 -34
-39 -49 -62 -54 -72 -15 -198 -68 -226 -94 -24 -22 -30 -36 -30 -68 0 -39 0
-39 -46 -46 -78 -10 -294 -7 -336 6 -54 16 -83 49 -102 118 -26 91 -46 280
-46 430 0 169 -6 210 -31 210 -13 0 -20 -10 -24 -32 -38 -232 -32 -520 16
-667 28 -86 119 -153 224 -166 45 -6 278 16 331 31 19 5 22 1 28 -54 8 -71 50
-231 71 -272 13 -25 22 -30 52 -30 l36 0 -7 -52 c-3 -29 -6 -83 -6 -120 l0
-68 -840 0 -840 0 0 2390 0 2390 2390 0 2390 0 0 -2390z m-410 -1050 c0 -14
-28 -1 -34 16 -4 12 -2 12 14 4 11 -6 20 -15 20 -20z m-862 -234 c75 -24 171
-54 212 -66 41 -12 125 -36 185 -55 61 -18 185 -56 277 -84 225 -69 225 -69
204 -84 -9 -7 -26 -37 -39 -68 -21 -53 -24 -55 -47 -47 -23 8 -572 173 -885
265 l-130 39 -3 32 c-3 27 4 40 36 73 22 21 43 39 46 39 4 0 69 -20 144 -44z
m-198 30 c0 -2 -8 -10 -17 -17 -16 -13 -17 -12 -4 4 13 16 21 21 21 13z m-50
-106 c0 -5 -5 -10 -11 -10 -5 0 -7 5 -4 10 3 6 8 10 11 10 2 0 4 -4 4 -10z
m190 -100 c221 -64 758 -227 819 -248 30 -10 57 -24 59 -32 3 -9 -1 -11 -14
-8 -11 3 -243 72 -517 154 -390 116 -501 152 -509 167 -8 16 -7 19 3 15 8 -3
79 -24 159 -48z m1006 -98 c-14 -13 -17 11 -9 65 l8 58 3 -59 c2 -32 1 -61 -2
-64z m-79 -104 c-3 -8 -6 -5 -6 6 -1 11 2 17 5 13 3 -3 4 -12 1 -19z m-775
-505 c84 -127 132 -213 124 -220 -3 -4 -21 7 -39 24 -33 32 -103 73 -124 73
-7 0 -14 23 -18 58 -4 31 -10 81 -14 110 -5 28 -5 52 -1 52 4 0 37 -44 72 -97z"/>
<path d="M2250 3437 c-11 -18 -20 -35 -20 -38 0 -4 -17 -1 -37 7 -51 18 -71
17 -120 -5 -54 -25 -77 -67 -71 -133 5 -46 4 -48 -16 -42 -12 4 -43 7 -69 7
-97 -1 -187 -91 -187 -187 0 -37 -4 -43 -37 -61 -48 -26 -83 -78 -83 -124 0
-30 -5 -40 -30 -54 -38 -23 -60 -65 -60 -115 0 -26 -7 -45 -20 -57 -28 -26
-36 -80 -17 -120 14 -28 14 -35 2 -51 -8 -11 -15 -38 -15 -61 l0 -43 -40 0
c-29 0 -40 -4 -40 -15 0 -11 -12 -15 -45 -15 l-45 0 0 -50 0 -50 -50 0 -50 0
0 -55 0 -55 60 0 60 0 0 50 0 50 54 0 c44 0 56 -4 68 -22 12 -18 12 -29 1 -74
-13 -48 -12 -58 3 -89 25 -54 119 -123 139 -103 3 2 10 40 17 84 13 86 13 87
32 -48 7 -44 9 -48 35 -48 16 0 49 -3 75 -6 l46 -7 0 -107 c0 -118 1 -120 63
-120 17 0 38 -7 48 -16 27 -25 89 -43 144 -43 49 -1 126 26 139 48 5 7 61 11
165 11 l159 0 7 105 7 104 76 3 77 3 -1 203 -1 202 147 0 148 0 -6 -173 c-2
-96 -2 -194 2 -219 l7 -46 74 -7 75 -7 0 -84 0 -84 47 0 c37 0 44 -3 35 -12
-21 -21 -13 -55 18 -81 65 -55 216 -56 274 -2 30 28 32 42 10 73 l-15 22 140
0 c87 0 141 -4 141 -10 0 -5 9 -10 19 -10 22 0 56 38 103 115 24 39 40 55 58
57 21 2 26 10 30 43 3 22 13 57 23 77 22 47 21 55 -3 101 l-21 38 27 54 c29
60 27 96 -7 139 -17 22 -18 29 -7 69 10 38 9 52 -5 89 -9 24 -17 59 -17 78 0
19 -9 50 -20 68 -18 28 -19 39 -10 73 18 67 -25 166 -80 184 -10 3 -24 21 -30
39 -6 19 -20 42 -30 51 -15 14 -20 31 -20 70 0 104 -79 191 -180 197 -39 3
-49 8 -73 42 -18 24 -47 46 -77 59 -33 14 -51 28 -54 43 -19 73 -111 118 -189
92 -41 -13 -44 -13 -60 9 l-18 23 -430 -1 -430 0 -19 -32z m492 -717 c28 -19
61 -32 93 -36 28 -3 72 -15 99 -26 36 -14 59 -18 85 -13 20 4 77 8 126 9 50 1
97 6 106 10 13 5 21 -2 35 -31 28 -56 77 -85 139 -82 54 3 155 -35 155 -58 0
-6 11 -25 25 -41 15 -18 25 -42 25 -61 l0 -31 -938 0 -939 0 5 28 c2 20 14 33
40 47 24 13 44 35 57 61 18 38 25 43 65 49 25 4 61 15 80 25 19 10 59 21 88
23 39 3 60 11 80 29 17 16 43 28 70 31 23 3 59 14 80 24 33 17 41 18 77 5 31
-10 49 -11 80 -2 22 7 64 15 93 20 29 5 69 17 90 29 20 11 38 20 39 20 1 1 22
-12 45 -29z m-632 -515 l0 -55 40 0 40 0 0 -50 0 -50 50 0 50 0 0 -55 0 -55
-55 0 -55 0 0 50 0 50 -40 0 -40 0 0 -50 0 -50 -55 0 -55 0 0 50 0 50 -45 0
-45 0 0 50 0 50 -50 0 -50 0 0 55 0 55 55 0 55 0 0 -50 0 -50 45 0 45 0 0 55
0 55 55 0 55 0 0 -55z m1112 -37 l3 -53 47 -3 47 -3 3 53 3 53 53 3 52 3 0
-55 0 -56 50 0 50 0 0 -50 0 -50 45 0 45 0 0 -55 0 -55 -55 0 -55 0 0 50 0 50
-40 0 -40 0 0 -50 0 -50 -55 0 -55 0 0 50 0 50 -49 0 -50 0 -3 53 -3 52 -52 3
-53 3 0 48 c0 26 3 51 7 54 3 4 28 7 54 7 l48 0 3 -52z"/>
<path d="M2010 2100 l0 -50 35 0 35 0 0 50 0 50 -35 0 -35 0 0 -50z"/>
<path d="M3330 2061 l0 -51 46 0 45 0 -3 48 -3 47 -42 3 -43 3 0 -50z"/>
<path d="M4512 3215 c0 -16 2 -22 5 -12 2 9 2 23 0 30 -3 6 -5 -1 -5 -18z"/>
<path d="M4447 3195 c4 -16 8 -100 8 -185 0 -85 3 -137 6 -115 l6 40 2 -45 c1
-25 3 -94 3 -155 l1 -110 6 100 6 100 17 -95 c10 -52 19 -148 21 -213 5 -124
1 -134 -40 -125 -15 4 -13 7 10 18 15 7 27 18 27 23 0 6 -5 6 -12 0 -42 -32
-45 -26 -42 75 l2 97 -7 -95 c-5 -52 -6 -101 -3 -109 4 -10 1 -12 -8 -6 -10 6
-12 4 -7 -9 4 -10 3 -15 -3 -11 -6 3 -11 -4 -12 -17 -1 -13 -4 29 -8 92 -4 87
-2 141 12 220 9 58 17 116 17 130 -1 14 -5 5 -10 -20 -48 -261 -61 -329 -85
-420 -25 -98 -27 -121 -29 -345 l-3 -240 8 240 c7 222 10 249 38 355 17 63 32
129 35 145 2 17 5 -15 5 -70 1 -55 -5 -145 -13 -200 -17 -117 -19 -215 -5
-215 6 0 11 -19 11 -42 1 -24 5 -56 9 -73 5 -17 5 1 2 40 -10 107 -7 256 7
297 18 55 47 86 87 94 41 8 54 28 54 87 0 40 -27 207 -64 397 -8 41 -19 142
-24 224 -6 87 -15 153 -22 160 -9 8 -9 4 -3 -19z m94 -808 c-6 -15 -18 -27
-28 -27 -10 0 -31 -7 -47 -15 -28 -15 -28 -15 -14 7 9 13 28 25 44 26 36 5 43
16 46 67 l1 40 4 -36 c2 -19 -1 -47 -6 -62z"/>
<path d="M4490 3136 c-6 -24 -10 -52 -7 -62 3 -14 5 -12 6 7 0 14 6 40 12 58
6 18 9 34 7 37 -3 2 -11 -15 -18 -40z"/>
<path d="M4365 1877 c-4 -80 -5 -151 -3 -159 3 -7 8 56 12 140 5 84 6 156 3
158 -3 3 -8 -60 -12 -139z"/>
<path d="M4421 1870 c0 -8 4 -24 9 -35 5 -13 9 -14 9 -5 0 8 -4 24 -9 35 -5
13 -9 14 -9 5z"/>
<path d="M4382 1810 c0 -14 2 -19 5 -12 2 6 2 18 0 25 -3 6 -5 1 -5 -13z"/>
<path d="M4441 1800 c0 -8 4 -24 9 -35 5 -13 9 -14 9 -5 0 8 -4 24 -9 35 -5
13 -9 14 -9 5z"/>
<path d="M4391 1744 c0 -11 3 -14 6 -6 3 7 2 16 -1 19 -3 4 -6 -2 -5 -13z"/>
<path d="M4462 1720 c0 -14 2 -19 5 -12 2 6 2 18 0 25 -3 6 -5 1 -5 -13z"/>
<path d="M4332 1705 c0 -16 2 -22 5 -12 2 9 2 23 0 30 -3 6 -5 -1 -5 -18z"/>
<path d="M4402 1685 c0 -16 2 -22 5 -12 2 9 2 23 0 30 -3 6 -5 -1 -5 -18z"/>
<path d="M4472 1665 c0 -16 2 -22 5 -12 2 9 2 23 0 30 -3 6 -5 -1 -5 -18z"/>
<path d="M2750 1545 c-12 -13 -41 -31 -64 -40 l-41 -15 43 4 c43 4 75 24 93
58 14 26 -4 22 -31 -7z"/>
<path d="M2360 880 c40 -140 138 -219 280 -228 93 -5 161 20 216 80 32 36 88
137 80 145 -1 2 -27 -1 -56 -7 -123 -23 -381 -6 -508 35 -19 5 -20 3 -12 -25z"/>
<path d="M4575 880 c3 -5 8 -10 11 -10 2 0 4 5 4 10 0 6 -5 10 -11 10 -5 0 -7
-4 -4 -10z"/>
<path d="M4610 865 c7 -9 15 -13 17 -11 7 7 -7 26 -19 26 -6 0 -6 -6 2 -15z"/>
<path d="M4656 860 c-23 -8 -8 -20 20 -16 10 2 22 -2 26 -8 6 -8 8 -7 8 1 0
18 -32 32 -54 23z"/>
<path d="M4633 811 c-24 -20 -31 -55 -13 -66 6 -4 10 7 10 24 0 17 4 31 9 31
5 0 11 7 15 15 7 19 6 19 -21 -4z"/>
<path d="M4655 789 c-11 -16 -1 -19 13 -3 7 8 8 14 3 14 -5 0 -13 -5 -16 -11z"/>
</g>
</svg>
